<?xml version="1.0" encoding="utf-8"?>
<!-- Generator: Adobe Illustrator 16.0.0, SVG Export Plug-In . SVG Version: 6.00 Build 0)  -->
<!DOCTYPE svg PUBLIC "-//W3C//DTD SVG 1.1//EN" "http://www.w3.org/Graphics/SVG/1.1/DTD/svg11.dtd">
<svg version="1.1" id="Layer_1" xmlns="http://www.w3.org/2000/svg" xmlns:xlink="http://www.w3.org/1999/xlink" x="0px" y="0px"
	 width="612px" height="792px" viewBox="0 0 612 792" enable-background="new 0 0 612 792" xml:space="preserve">
<g>
	<path id="WA" fill="#A6A6A6" d="M128.131,0l-1.909,5.927l-1.477,6.764l-1.689,5.08c0,0,5.944,5.379,5.927,5.29
		c-0.021-0.089-1.063,2.958-1.063,2.958l2.749,2.327h3.599l4.656,2.119l11.632,1.689l12.087,4.642l2.302,0.864l9.312-24.758
		l-32.58-12.689l-0.642,7.192l-3.592,6.773l-1.689-0.426l2.541-4.016V6.561L128.131,0z"/>
	<polygon id="OR" fill="#A6A6A6" points="103.381,50.989 104.867,43.583 114.167,32.792 121.358,22.219 123.056,17.771 
		128.982,23.061 127.919,26.019 130.672,28.35 134.262,28.35 138.926,30.469 150.55,32.158 164.939,37.664 166.42,40.616 
		157.749,50.147 159.022,52.044 151.609,69.813 131.089,63.047 	"/>
	<polygon id="NV" fill="#A6A6A6" points="146.534,137.095 149.073,126.938 153.095,128.205 154.362,127.79 171.5,76.379 
		131.089,63.047 119.251,87.801 	"/>
	<path id="ID" fill="#A6A6A6" d="M179.963,14.807l-5.715-1.901l-9.309,24.754l1.481,2.956l-8.671,9.528l1.273,1.901l-7.413,17.769
		l19.886,6.561l20.948,6.131l6.359-22.386l-1.492-2.574c0,0-1.596,1.782-1.899,1.903c-0.093,0.038-8.258-2.115-8.258-2.115
		l-0.421,1.055l-3.179-6.131l-1.056-7.196l-4.016,0.421l4.016-8.458l-5.921-9.102l1.263-2.537l-1.056-2.753L179.963,14.807z"/>
	<polygon id="UT" fill="#A6A6A6" points="204.927,93.724 190.754,90.342 192.448,82.514 171.5,76.379 157.055,119.743 
		196.675,129.687 	"/>
	<polygon id="CA" fill="#A6A6A6" points="116.596,153.067 138.024,157.351 141.292,157.229 141.199,155.45 139.611,153.701 
		142.146,148.939 147.542,144.817 146.534,137.095 119.251,87.801 131.089,63.047 103.381,50.989 99.785,58.971 95.025,62.783 
		95.025,73.412 92.804,77.22 95.339,82.777 94.385,86.586 96.135,91.027 94.705,96.581 97.404,101.34 96.602,102.766 
		95.497,101.818 93.748,105.145 98.989,118.318 96.926,124.665 104.542,129.269 107.397,133.71 111.525,135.29 111.363,138.626 
		113.27,139.26 117.238,146.404 	"/>
	<polygon id="AZ" fill="#A6A6A6" points="183.877,182.896 196.675,129.687 157.055,119.743 154.362,127.79 153.095,128.205 
		149.073,126.938 146.592,137.095 147.542,144.817 142.146,148.939 139.611,153.701 141.199,155.45 141.199,157.189 
		138.024,157.351 136.755,159.734 164.829,178.926 	"/>
	<polygon id="WY" fill="#A6A6A6" points="246.385,63.891 200.068,55.803 192.448,82.514 190.754,90.342 204.927,93.724 
		241.476,99.277 	"/>
	<polygon id="MT" fill="#A6A6A6" points="250.841,29.459 246.385,63.891 200.068,55.803 198.794,60.086 197.315,57.546 
		195.412,59.449 187.154,57.334 186.732,58.394 183.554,52.258 182.498,45.062 178.482,45.483 182.498,37.026 176.582,27.924 
		177.844,25.383 176.789,22.635 179.963,14.807 191.336,18.193 215.294,24.222 	"/>
	<polygon id="CO" fill="#A6A6A6" points="256.55,100.391 241.476,99.277 204.927,93.724 196.675,129.687 244.806,137.197 
		252.917,136.998 	"/>
	<polygon id="NM" fill="#A6A6A6" points="191.498,184.484 192.448,179.566 208.152,182.259 206.88,180.2 239.097,184.484 
		244.806,137.197 196.675,129.687 183.877,182.896 	"/>
	<polygon id="TX" fill="#A6A6A6" points="269.084,143.392 244.374,141.001 239.097,184.484 206.88,180.2 208.152,182.259 
		210.373,185.753 213.069,187.82 215.457,191.304 216.881,193.849 220.21,195.433 222.115,200.196 221.485,202.415 222.75,205.587 
		226.559,209.396 235.126,213.675 237.985,210.979 239.888,207.019 243.062,207.019 243.696,205.432 245.764,206.537 
		252.108,207.337 254.014,210.188 255.438,211.616 258.933,214.949 261.625,222.879 264.329,226.058 266.867,229.552 
		268.771,229.552 269.408,236.69 273.054,243.035 274.642,242.401 278.759,244.307 281.62,247.161 287.02,247.797 289.712,248.74 
		291.771,247.003 289.236,236.532 289.554,233.994 291.299,230.186 289.236,228.123 292.891,228.278 294.954,225.106 
		299.707,221.616 297.648,220.19 301.77,220.982 308.757,217.49 314.466,212.732 312.874,209.711 314.148,210.188 315.735,208.128 
		315.735,210.511 317.479,210.669 322.874,208.924 322.716,207.495 325.566,203.209 324.937,199.883 325.724,194.007 
		323.027,189.879 322.716,187.654 320.491,186.391 319.699,170.997 309.706,167.504 300.029,169.891 294.954,168.146 
		292.413,169.891 291.771,168.459 290.823,168.613 288.758,167.35 286.538,168.613 284.475,165.601 281.146,167.35 275.271,165.283 
		273.526,163.218 271.467,163.372 268.446,160.997 	"/>
	<path id="OK" fill="#A6A6A6" d="M252.917,136.998l60.274,1.949l0.162,5.04l2.383,8.765l0.326,9.675l0.153,7.299l-6.505-2.221
		l-9.677,2.387l-5.08-1.745l-2.535,1.745l-0.644-1.427l-0.952,0.154l-2.065-1.268l-2.217,1.268l-2.067-3.013l-3.329,1.75
		l-5.871-2.067l-1.749-2.061l-2.059,0.153l-3.017-2.375l0.638-17.613l-24.715-2.387l0.437-3.8L252.917,136.998z"/>
	<polygon id="KS" fill="#A6A6A6" points="306.326,110.671 283.236,111.718 255.678,109.337 252.917,136.998 313.19,138.946 
		312.428,119.024 308.46,115.221 310.539,113.097 309.505,111.685 308.285,112.246 	"/>
	<polygon id="NE" fill="#A6A6A6" points="283.346,84.3 243.917,81.381 241.476,99.277 256.55,100.391 255.678,109.337 
		283.236,111.718 306.326,110.671 306.285,110.102 303.569,105.797 302.383,97.848 297.409,88.133 292.083,85.275 286.733,86.472 	
		"/>
	<polygon id="SD" fill="#A6A6A6" points="296.834,58.743 271.766,57.691 247.476,55.543 243.883,81.332 283.346,84.3 
		286.733,86.472 292.083,85.275 297.409,88.133 296.221,86.505 297.455,81.487 296.886,79.83 298.091,79.701 	"/>
	<polygon id="ND" fill="#A6A6A6" points="292.473,32.227 293.503,34.46 293.163,39.731 294.827,43.4 295.626,53.133 296.834,58.743 
		271.766,57.691 247.476,55.543 250.831,29.597 264.752,31.421 	"/>
	<polygon id="ME" fill="#A6A6A6" points="463.831,6.8 465.458,6.8 465.869,7.88 467.286,7.88 469.774,4.778 474.167,6.054 
		479.974,16.045 481.927,15.772 483.213,15.914 484.557,18.474 485.71,18.474 486.173,17.807 489.615,19.959 489.283,21.582 
		484.293,29.004 482.263,27.989 482.063,30.758 479.701,28.801 480.233,33.12 478.689,34.132 477,37.306 475.719,36.024 
		474.435,38.65 475.652,40.14 474.302,45.935 471.2,43.441 462.56,28.533 464.513,28.46 463.769,25.898 465.053,21.781 
		463.908,20.158 463.98,17.121 462.9,14.156 463.367,12.739 463.303,9.297 463.769,8.688 	"/>
	<polygon id="VT" fill="#A6A6A6" points="459.458,54.98 463.866,52.877 461.887,46.003 460.879,39.731 462.9,35.476 461.479,34.468 
		461.508,31.595 449.986,37.021 451.083,40.745 453.042,42.224 453.042,44.391 454.892,48.642 455.876,47.896 	"/>
	<polygon id="NH" fill="#A6A6A6" points="462.9,35.476 461.479,34.468 461.479,29.678 462.56,28.533 471.2,43.441 474.302,45.935 
		474.979,47.424 473.358,47.424 472.21,49.653 463.866,52.877 461.887,46.003 460.879,39.731 	"/>
	<path id="Mass" fill="#A6A6A6" d="M459.458,54.98l1.08,6.357l4.843-2.051l5.875-2.788l0.569,0.308l2.48-1.27l3.447,3.839
		l2.881-3.399l0.569,0.875l2.392-1.523l1.522-0.565l-0.083-1.438l-2.971-1.916l1.575,1.523l0.438,1.255l-1.651,0.962l-1.182-0.654
		l-0.783-1.311l-3.31-1.128l-1.307,0.218c0,0-0.958-0.916-0.576-0.958c0.397-0.048,1.614-3.272,1.614-3.272l-1.469,0.22l-0.43-0.837
		h-1.616l-1.149,2.225l-8.348,3.224l0,0L459.458,54.98z"/>
	<polygon id="RI" fill="#A6A6A6" points="474.35,62.864 476.753,61.03 475.71,57.107 474.312,55.543 471.825,56.811 471.954,57.594 
		473.83,61.296 473.83,62.189 	"/>
	<polygon id="CT" fill="#A6A6A6" points="463.411,69.924 462.759,69.531 463.547,67.915 460.538,61.341 465.381,59.287 
		471.256,56.499 471.825,56.811 471.954,57.594 473.83,61.296 473.83,62.189 474.35,62.864 	"/>
	<polygon id="NJ" fill="#A6A6A6" points="455.028,70.208 462.023,71.139 460.935,75.978 463.367,76.067 464.988,83.825 
		462.061,91.015 461.537,89.229 460.538,89.575 455.743,87.793 455.504,85.206 459.543,80.102 454.266,77.59 453.522,76.115 
		454.059,74.779 453.059,74.004 	"/>
	<polygon id="DE" fill="#A6A6A6" points="452.909,86.521 454.42,84.67 454.892,84.568 455.504,85.206 455.743,87.793 
		456.709,88.142 458.751,91.495 461.062,91.977 461.935,92.716 463.411,95.112 461.646,96.053 458.812,97.239 	"/>
	<polygon id="MD" fill="#A6A6A6" points="426.861,95.104 452.909,86.521 458.812,97.239 461.646,96.053 463.411,95.112 
		462.508,99.221 462.615,105.996 461.658,109.167 460.177,106.74 459.969,105.042 460.927,101.34 458.913,101.656 457.964,99.647 
		457.114,100.391 453.834,98.482 454.892,96.691 451.931,91.823 452.889,88.856 450.449,91.295 451.403,93.305 451.825,97.214 
		454.892,102.082 452.889,102.082 451.293,102.716 449.323,101.758 448.966,101.027 447.277,102.396 446.73,101.226 447.6,98.303 
		447.165,96.895 443.579,96.261 443.187,94.958 440.612,94.881 439.975,93.934 438.073,92.98 436.393,92.623 435.223,94.466 
		433.929,94.624 432.784,94.358 430.964,96.201 428.721,99.358 427.44,97.796 	"/>
	<polygon id="NY" fill="#A6A6A6" points="416.706,73.944 418.186,76.165 447.68,66.047 450.973,67.805 451.606,69.604 
		455.028,70.208 462.023,71.139 460.935,75.978 464.513,73.31 466.636,72.145 468.954,70.03 470.55,69.498 474.678,64.63 
		471.285,66.323 468.856,67.915 467.159,69.286 463.137,71.507 463.411,69.924 462.759,69.531 463.547,67.915 460.538,61.341 
		459.458,54.98 455.876,47.896 454.892,48.642 453.042,44.391 453.042,42.224 451.083,40.745 449.986,37.021 441.132,40.092 
		433.418,50.989 436.061,51.619 436.912,54.899 434.579,59.035 429.819,61.034 423.471,61.252 418.505,63.789 421.676,67.489 
		420.194,69.924 	"/>
	<polygon id="LA" fill="#A6A6A6" points="345.723,174.906 320.04,176.533 320.491,186.391 322.716,187.654 323.027,189.879 
		325.724,194.007 324.937,199.883 325.566,203.209 322.716,207.495 322.874,208.924 325.018,208.762 329.541,207.576 
		332.081,207.495 335.724,209.163 339.45,209.242 340.729,208.843 343.263,209.639 343.904,208.444 342.313,207.809 
		341.123,208.209 339.859,207.495 342.714,206.065 345.17,207.019 345.966,208.843 349.211,210.979 353.652,212.175 
		355.397,211.937 358.104,210.511 359.21,212.094 359.929,211.141 360.325,207.971 368.966,211.616 368.894,210.349 
		368.737,208.924 365.396,208.523 362.628,205.741 365.64,204.073 364.687,201.461 363.104,203.923 361.597,203.053 
		361.273,201.941 358.971,202.1 356.355,202.019 357.542,199.164 362.064,200.751 363.104,201.064 364.29,200.117 360.874,195.989 
		360.64,192.896 343.664,194.402 345.598,186.011 348.979,180.671 	"/>
	<polygon id="AR" fill="#A6A6A6" points="354.371,145.135 353.096,150.369 351.28,154.731 344.611,167.504 345.723,174.906 
		320.02,176.533 319.699,170.997 316.215,169.725 315.735,152.747 313.353,143.986 313.353,143.153 329.816,142.395 
		336.481,141.882 348.82,140.531 350.488,140.375 350.645,141.48 350.96,141.882 349.526,145.054 	"/>
	<polygon id="MO" fill="#A6A6A6" points="335.983,105.635 335.95,107.515 335.569,108.319 339.693,113.398 342.868,115.541 
		344.059,119.033 345.483,117.925 347.599,118.964 346.047,123.082 347.31,125.062 353.733,129.028 355.641,131.81 354.176,132.699 
		355.661,134.818 357.78,134.822 358.184,139.2 355.959,140.218 354.371,145.135 349.526,145.054 350.96,141.882 350.645,141.48 
		350.488,140.375 336.481,141.882 329.816,142.395 313.353,143.153 313.19,138.946 312.428,119.024 308.46,115.221 310.539,113.097 
		309.505,111.685 308.285,112.246 306.326,110.671 306.285,110.102 303.569,105.797 319.39,105.392 331.047,103.962 
		333.388,103.996 	"/>
	<polygon id="IA" fill="#A6A6A6" points="334.018,77.714 318.59,79.127 298.091,79.701 296.886,79.83 297.455,81.487 
		296.221,86.505 297.409,88.133 302.383,97.848 303.569,105.797 319.39,105.392 325.724,104.592 331.047,103.962 333.388,103.996 
		335.983,105.635 336.129,104.114 337.786,103.09 338.191,101.181 339.157,100.613 339.141,98.958 337.554,98.01 337.907,97.418 
		337.944,96.504 343.323,93.333 343.587,89.675 340.884,87.934 338.897,84.917 337.229,84.683 335.098,81.182 336.039,80.237 	"/>
	<path id="MN" fill="#A6A6A6" d="M305.42,31.604l0.239-2.778l0.953,0.162l1.511,4.356l4.837,1.035l0.555,1.19l3.727-1.506
		l5.152,1.583l0.476,2.144l1.588-1.743l4.364,2.217l3.495-1.66l1.186,1.425l3.26-0.949l3.881,0.629l-4.439,2.775
		c0,0-3.096,2.063-3.249,2.383c-0.158,0.313-2.14,3.012-2.14,3.012l-5.692,4.646l-0.101,2.736l0.101,2.846
		c0,0-2.473,1.455-2.716,1.693c-0.234,0.239-1.282,2.358-1.282,2.358l2.314,1.99l-0.947,0.491l0.472,5.275l5.616,3.033l4.528,2.938
		l1.102,1.007l-0.191,2.813l-15.432,1.417l-20.495,0.574l-1.261-20.969l-1.203-5.603l-0.8-9.738l-1.664-3.665l0.341-5.275
		l-1.03-2.229L305.42,31.604z"/>
	<polygon id="MS" fill="#A6A6A6" points="374.914,197.5 369.604,197.354 364.082,199.916 360.874,195.989 360.64,192.896 
		343.664,194.402 345.598,186.011 348.979,180.671 345.723,174.906 344.611,167.504 351.28,154.731 369.273,152.621 370.09,156.888 
		371.37,178.395 371.914,183.57 373.834,193.91 	"/>
	<polygon id="AL" fill="#A6A6A6" points="390.475,149.174 398.104,167.866 402.091,174.216 400.958,178.153 402.882,181.403 
		402.882,184.845 404.52,185.867 380.432,190.463 380.63,191.845 383.058,193.448 382.599,196.959 380.825,197.458 379.939,196.959 
		377.378,193.615 377.089,194.896 376.396,197.057 374.914,197.5 373.834,193.91 371.914,183.57 371.37,178.395 370.09,156.888 
		369.273,152.621 	"/>
	<polygon id="GA" fill="#A6A6A6" points="410.953,144.871 409.877,147.233 413.935,148.694 413.935,148.694 416.271,151.266 
		421.879,155.695 425.037,155.947 426.02,157.769 430.149,160.042 431.688,163.091 433.604,164.126 435.375,167.521 
		438.034,168.013 437.149,172.54 437.247,181.301 431.436,182.088 432.917,186.428 431.236,186.522 430.555,184.845 
		407.417,188.888 405.932,188.791 404.52,185.867 402.882,184.845 402.882,181.403 400.958,178.153 402.091,174.216 
		398.104,167.866 390.475,149.174 	"/>
	<polygon id="SC" fill="#A6A6A6" points="430.818,141.688 429.176,139.557 427.011,139.357 418.538,140.733 410.953,144.871 
		409.877,147.233 413.935,148.694 416.271,151.266 421.879,155.695 425.037,155.947 426.02,157.769 430.149,160.042 
		431.688,163.091 433.604,164.126 435.375,167.521 438.034,168.013 441.188,162.593 445.812,157.769 449.063,153.242 
		448.671,151.174 449.063,149.6 450.736,146.153 452.511,145.17 445.324,141.821 440.107,139.455 	"/>
	<polygon id="FL" fill="#A6A6A6" points="451.424,200.113 442.962,191.942 437.247,181.301 431.436,182.088 432.917,186.428 
		431.236,186.522 430.555,184.845 407.417,188.888 405.932,188.791 404.52,185.867 380.432,190.463 380.63,191.845 383.058,193.448 
		382.599,196.959 390.373,194.402 392.733,194.402 400.223,196.372 401.601,196.569 404.656,199.228 407.511,198.636 
		411.148,195.981 412.825,194.794 414.307,192.729 417.157,193.708 419.033,194.007 420.607,195.58 422.476,195.58 423.267,197.552 
		427.011,199.916 428.976,199.026 431.635,201.981 432.228,212.226 434.49,213.503 434.592,212.03 433.312,210.746 435.971,210.848 
		436.852,211.831 435.176,215.57 441.48,221.383 442.365,219.613 443.446,223.747 445.523,224.14 448.476,228.866 451.918,229.361 
		455.951,233.003 455.854,235.167 457.437,235.764 462.56,233.491 464.623,230.441 463.929,228.964 464.623,225.42 461.764,214.88 
		452.999,204.248 	"/>
	<polygon id="NC" fill="#A6A6A6" points="462.648,114.543 466.1,117.794 459.896,121.627 465.605,119.374 468.954,121.931 
		466.691,125.87 461.475,126.163 464.032,127.048 464.521,128.33 463.241,131.087 466.295,129.02 465.709,131.972 460.488,134.342 
		457.437,138.963 456.449,143.494 452.511,145.17 440.107,139.455 430.818,141.688 429.176,139.557 427.011,139.357 
		418.538,140.733 410.953,144.871 400.711,147.03 401.112,144.676 402.788,144.08 403.472,141.034 405.936,140 409.773,136.993 
		411.838,134.631 412.825,134.631 414.998,132.865 416.962,132.865 418.241,130.104 419.671,129.909 418.731,127.542 
		433.092,124.397 448.094,119.471 	"/>
	<polygon id="TN" fill="#A6A6A6" points="367.456,138.358 366.94,136.796 368.809,136.409 379.786,135.115 403.512,130.783 
		418.731,127.542 419.671,129.909 418.241,130.104 416.962,132.865 414.998,132.865 412.825,134.631 411.838,134.631 
		409.773,136.993 405.936,140 403.472,141.034 402.788,144.08 401.112,144.676 400.711,147.03 390.475,149.174 369.273,152.621 
		351.28,154.731 353.096,150.369 354.428,144.871 355.959,140.218 358.184,139.2 361.447,139.167 	"/>
	<polygon id="PA" fill="#A6A6A6" points="412.451,77.688 416.706,73.944 418.186,76.165 447.68,66.047 450.973,67.805 
		451.606,69.604 455.028,70.208 453.059,74.004 454.059,74.779 453.522,76.115 454.266,77.59 459.543,80.102 455.504,85.206 
		454.892,84.568 454.42,84.67 452.909,86.521 426.861,95.104 418.96,96.805 417.311,92.384 	"/>
	<polygon id="VA" fill="#A6A6A6" points="458.211,107.592 456.493,103.464 454.892,102.082 452.889,102.082 451.293,102.716 
		449.323,101.758 448.966,101.027 447.277,102.396 446.73,101.226 447.6,98.303 447.165,96.895 443.579,96.261 443.187,94.958 
		440.612,94.881 440.527,96.926 436.166,94.921 436.227,98.814 433.694,102.404 432.564,102.35 431.164,106.329 428.395,105.352 
		427.682,112.013 426.352,114.132 427.33,115.14 421.85,120.084 420.259,120.913 419.078,120.496 417.847,121.85 413.365,119.561 
		413.012,120.674 407.881,127.393 403.512,130.783 418.731,127.542 433.092,124.397 462.648,114.543 463.575,113.958 
		461.861,111.481 460.385,111.19 459.568,111.838 457.147,108.302 	"/>
	<polygon id="WV" fill="#A6A6A6" points="406.881,115.25 406.936,113.016 409.179,111.307 409.472,109.655 409.175,108.124 
		409.943,106.358 410.949,107.178 412.127,106.179 410.949,104.467 412.541,101.997 413.897,102.29 416.313,98.162 417.311,92.384 
		418.96,96.805 426.861,95.104 427.44,97.796 428.721,99.358 430.964,96.201 432.784,94.358 433.929,94.624 435.223,94.466 
		436.393,92.623 438.073,92.98 439.975,93.934 440.612,94.881 440.527,96.926 436.166,94.921 436.227,98.814 433.694,102.404 
		432.564,102.35 431.164,106.329 428.395,105.352 427.682,112.013 426.352,114.132 427.33,115.14 421.85,120.084 420.259,120.913 
		419.078,120.496 417.847,121.85 413.365,119.561 411.067,118.964 	"/>
	<polygon id="OH" fill="#A6A6A6" points="382.773,87.317 387.968,110.536 392.68,110.718 393.504,112.135 400.58,112.362 
		403.938,110.536 406.936,113.016 409.179,111.307 409.472,109.655 409.175,108.124 409.943,106.358 410.949,107.178 
		412.127,106.179 410.949,104.467 412.541,101.997 413.897,102.29 416.313,98.162 417.311,92.384 412.451,77.688 408.477,80.544 
		407.702,80.777 405.351,84.02 399.753,86.55 392.457,84.527 	"/>
	<polygon id="KY" fill="#A6A6A6" points="363.627,133.64 362.864,131.959 363.104,130.516 365.8,129.277 364.744,127.158 
		367.042,125.27 370.464,124.563 372.701,125.559 374.885,123.092 376.944,123.978 378.421,121.087 381.365,122.091 
		384.662,114.842 388.437,113.077 387.968,110.536 392.68,110.718 393.504,112.135 400.58,112.362 403.938,110.536 406.936,113.016 
		406.881,115.25 411.067,118.964 413.365,119.561 413.012,120.674 407.881,127.393 403.512,130.783 379.786,135.115 
		368.809,136.409 366.94,136.796 367.456,138.358 361.447,139.167 358.184,139.2 357.78,134.822 358.56,133.108 360.916,133.17 
		361.39,133.523 	"/>
	<polygon id="IN" fill="#A6A6A6" points="368.28,117.08 366.81,114.254 367.042,112.603 367.516,111.072 363.273,90.564 
		365.282,91.214 369.421,89.484 382.607,86.912 382.773,87.317 387.968,110.536 388.437,113.077 384.662,114.842 381.365,122.091 
		378.421,121.087 376.944,123.978 374.885,123.092 372.701,125.559 370.464,124.563 367.042,125.27 364.744,127.158 
		365.282,122.326 	"/>
	<polygon id="IL" fill="#A6A6A6" points="359.547,83.808 363.273,90.564 367.516,111.072 367.042,112.603 366.81,114.254 
		368.28,117.08 365.282,122.326 364.744,127.158 365.8,129.277 363.104,130.516 362.864,131.959 363.627,133.64 361.39,133.523 
		360.916,133.17 358.56,133.108 357.78,134.822 355.661,134.818 354.176,132.699 355.641,131.81 353.733,129.028 347.31,125.062 
		346.047,123.082 347.599,118.964 345.483,117.925 344.059,119.033 342.868,115.541 339.693,113.398 335.569,108.319 
		335.95,107.515 335.983,105.635 336.129,104.114 337.786,103.09 338.191,101.181 339.157,100.613 339.141,98.958 337.554,98.01 
		337.907,97.418 337.944,96.504 343.323,93.333 343.323,93.333 343.587,89.675 340.884,87.934 339.94,86.497 348.07,85.316 	"/>
	<polygon id="WI" fill="#A6A6A6" points="360.822,58.929 359.247,66.81 359.474,69.178 358.231,71.038 358.971,73.854 
		358.065,76.616 358.121,78.141 360.095,81.065 359.547,83.808 339.94,86.497 338.897,84.917 337.229,84.683 335.098,81.182 
		336.039,80.237 334.018,77.714 334.213,74.901 333.107,73.89 328.213,70.753 322.963,67.915 322.495,62.644 323.438,62.154 
		321.12,60.164 322.406,57.806 325.115,56.112 325.018,53.266 325.115,50.53 326.357,50.59 333.677,47.437 334.298,47.717 
		333.621,50.368 335.252,50.023 337.088,50.603 339.816,52.337 351.27,53.758 354.857,55.886 355.134,59.266 356.823,58.759 
		356.652,60.167 357.614,60.839 355.589,65.125 357.444,63.49 358.909,62.251 	"/>
	<path id="MI" fill="#A6A6A6" d="M370.68,57.972l-2.871,3.042l0.557,1.184l-1.572,0.617l1.242,3.663l-1.695,2.366l1.579,2.14
		l-0.505,1.803l3.492,5.965l0.061,4.57l-0.958,4.276l-2.412,2.638l1.824-0.748l13.187-2.581l0.17,0.414l9.68-2.79l1.6-2.898
		l-0.565-2.703l2.591-3.549l0.626-1.238l-0.231-2.088l-4.053-7.494L390.001,64l-3.44,4.737l-1.911-0.559l0.102-2.204l1.417-0.792
		l0.175-2.14l1.353-0.731l-3.106-8.221l-9.176-2.53l-0.507-1.243l0.677-0.677l2.757-0.617l0.787-1.187l-1.692-2.992l-4.957,1.016
		l-0.682,0.396l-0.728-2.366l-6.31,1.469l-3.089,2.867l-4.791,0.677l-2.362-2.422l-3.833-0.846l-1.294,1.182l0.507-3.326
		l2.761-2.983l-2.875,0.728l-2.082,2.366l-4.229,3.667l-2.863,0.788l-3.446,2.533l2.655,1.747l11.453,1.421l3.584,2.127l0.276,3.38
		l1.685-0.507l-0.162,1.408l0.962,0.675l1.124-2.811l0.345-2.48c0,0,1.454-0.729,1.629-0.843c0.171-0.119,2.259-1.637,2.259-1.637
		l4.562-1.693l1.523-0.393l0.727-0.792l1.924,0.451l2.196,0.447l0.276,0.617l-1.417,2.146l1.417,1.406l-2.42,1.86L370.68,57.972z"/>
	<g id="AK">
		<polygon fill="#A6A6A6" points="27.339,163.156 28.61,163.924 29.884,162.397 34.465,162.653 35.743,164.431 37.394,161.764 
			38.028,163.542 39.048,163.542 41.848,163.282 40.963,165.58 39.941,165.194 39.814,169.01 36.25,172.324 36.38,173.086 
			35.861,173.346 35.101,172.706 33.956,174.613 33.576,174.106 31.033,176.396 30.521,177.285 29.884,177.919 28.61,176.782 
			28.105,177.158 26.961,175.889 21.229,180.595 21.611,181.621 23.011,182.25 22.885,181.105 24.541,182.25 26.961,178.689 
			27.973,180.221 30.27,180.221 31.538,178.816 31.407,180.094 32.429,179.579 33.956,178.312 36.632,177.667 38.028,175.255 
			40.963,173.851 42.482,173.984 43.249,170.924 46.944,169.523 49.745,168.381 49.864,166.218 52.294,164.305 50.375,163.156 
			49.997,161.504 51.906,159.977 56.356,153.356 58.778,151.96 59.798,149.543 60.305,151.066 61.317,151.445 62.092,150.688 
			62.092,153.229 59.927,153.229 58.271,155.521 57.638,159.088 56.992,159.848 59.412,158.581 56.616,160.866 58.145,161.631 
			60.187,160.742 62.221,158.959 63.237,158.066 66.164,158.317 65.773,154.883 64.893,153.356 65.773,152.978 66.798,153.738 
			70.236,152.215 69.717,154.374 73.542,155.654 74.563,154.245 75.324,155.905 78.635,157.81 83.983,157.045 86.277,156.543 
			86.906,157.688 88.817,157.939 88.94,157.045 88.438,155.398 86.655,154.765 85.766,155.134 78.128,105.242 74.052,103.333 
			70.105,104.353 60.187,100.918 59.293,101.681 57.251,102.319 55.851,100.788 56.489,99.261 52.54,99.516 52.795,98.247 
			51.779,98.372 51.401,99.388 50.505,99.388 50.505,97.609 49.099,96.205 46.689,98.883 45.031,98.116 39.299,100.665 
			34.338,106.902 29.759,106.52 29.117,108.307 27.212,109.191 27.973,110.336 29.5,111.101 31.538,115.297 31.917,116.706 
			35.356,118.611 36.121,120.134 39.941,120.522 39.686,122.049 35.356,121.279 34.594,119.5 35.227,122.432 31.288,122.049 
			30.904,120.522 26.961,120.263 26.961,121.412 25.301,120.522 21.611,122.049 24.541,125.228 22.756,126.122 23.136,127.9 
			25.178,129.171 27.212,130.571 30.648,131.083 35.101,130.312 35.998,131.469 34.594,132.099 35.227,136.175 32.429,136.937 
			31.67,136.686 30.144,138.72 28.739,138.72 27.461,137.697 20.217,144.705 20.847,147.246 21.995,148.013 22.885,149.543 
			25.301,150.177 25.434,150.815 22.377,149.795 20.718,150.688 22.756,155.016 25.561,155.521 26.067,155.016 27.212,155.134 
			27.973,153.356 30.011,151.445 28.866,153.738 28.866,156.543 27.973,159.466 		"/>
		<polygon fill="#A6A6A6" points="88.94,158.836 93.016,160.104 93.905,160.229 97.859,163.419 100.152,163.156 98.36,161.249 
			99.386,160.486 101.287,160.486 101.287,158.959 103.203,161.764 104.347,162.775 106.003,162.138 106.768,162.775 
			108.93,164.049 109.308,165.194 109.568,166.465 113.763,169.652 115.422,171.308 115.93,172.835 117.961,170.924 
			119.366,172.068 119.621,175.507 120.895,177.541 122.293,174.869 121.273,171.941 122.042,170.286 114.278,168.381 
			113.636,166.465 109.057,161.126 106.637,159.088 105.107,159.466 102.82,157.305 101.798,155.905 99.889,155.398 98.233,156.287 
			98.615,157.305 97.215,159.21 96.581,160.355 95.437,158.704 93.783,157.045 92.505,156.406 91.616,155.521 90.852,154.631 
			89.711,153.99 88.688,154.505 89.711,155.905 90.982,156.666 89.586,157.432 		"/>
		<path fill="#A6A6A6" d="M117.072,179.201l0.264-1.278l-1.787-1.905l-0.638-2.034l-1.396-1.282l-0.889-0.253l-0.259,2.925
			c0,0,0.384,1.912,0.897,2.294c0.507,0.38,1.4,1.022,2.03,1.022C115.93,178.689,117.072,179.201,117.072,179.201z"/>
		<polygon fill="#A6A6A6" points="109.69,173.591 108.291,172.324 107.397,169.27 108.67,168.381 109.69,171.175 109.824,173.984 		
			"/>
		<polygon fill="#A6A6A6" points="111.218,170.797 110.835,168.381 109.824,168.381 110.333,170.797 		"/>
		<polygon fill="#A6A6A6" points="117.839,176.396 118.988,176.782 118.728,174.613 118.221,172.835 117.457,172.706 
			116.686,173.346 117.201,175.125 		"/>
		<polygon fill="#A6A6A6" points="106.892,167.614 107.657,166.091 106.768,164.687 105.496,163.542 105.496,165.194 
			106.13,166.218 		"/>
		<path fill="#A6A6A6" d="M104.096,167.103l2.034,1.404l0.889,2.417c0,0,0.771,1.911,0.259,2.167
			c-0.507,0.256-1.778-2.167-1.778-2.167l-0.638-0.256l-1.278-2.161L104.096,167.103z"/>
		<polygon fill="#A6A6A6" points="102.691,167.487 101.671,167.487 100.657,164.818 101.424,163.542 102.82,163.282 103.329,164.18 
					"/>
		<polygon fill="#A6A6A6" points="67.82,159.088 68.454,156.028 70.105,157.561 		"/>
		<path fill="#A6A6A6" d="M50.123,176.396l1.014-1.66l0.509-1.394l1.145-0.511l2.038-1.274l0.384-1.522l-1.405-0.769l-0.889-0.885
			l-0.889,1.143l-0.629-0.509l-1.278,0.509l-0.889,1.145l0.889,0.64l-2.297,0.633l0.259,1.145l0.511,0.382l0.378,0.386l-0.756,1.4
			l-0.384,0.511c0,0-1.145,0.251-0.382,0.889c0.767,0.629,0,0.629,0.767,0.629C48.97,177.285,50.123,176.396,50.123,176.396z"/>
		<polygon fill="#A6A6A6" points="55.217,167.614 55.727,166.848 54.582,165.832 53.046,166.598 53.566,167.87 		"/>
		<polygon fill="#A6A6A6" points="29.242,182.379 28.228,181.872 28.228,180.85 29.5,180.468 29.5,181.621 		"/>
		<polygon fill="#A6A6A6" points="20.339,182.888 19.579,181.357 17.791,181.232 16.515,181.357 15.248,182.506 15.752,183.399 
			16.774,183.906 18.43,183.269 		"/>
		<polygon fill="#A6A6A6" points="9.894,186.578 10.665,185.051 9.52,184.54 7.989,184.162 7.222,185.182 6.466,186.705 
			4.937,187.211 6.975,187.471 8.63,186.837 		"/>
		<polygon fill="#A6A6A6" points="0.1,188.747 0.738,187.594 2.143,186.204 2.768,185.438 4.172,185.309 4.937,185.812 
			3.913,187.345 2.649,188.229 1.372,189.002 		"/>
		<polygon fill="#A6A6A6" points="14.863,150.046 14.996,151.445 16.008,152.34 16.646,153.867 18.557,153.867 19.068,152.084 
			18.301,151.066 16.515,151.066 		"/>
		<polygon fill="#A6A6A6" points="12.569,135.923 13.974,134.392 15.115,135.281 15.634,134.137 14.358,133.243 13.34,131.209 
			9.393,129.053 8.5,130.571 9.894,131.338 11.809,133.632 		"/>
	</g>
	<g id="HI">
		<polygon fill="#A6A6A6" points="124.348,210.707 125.098,209.209 126.217,209.342 126.467,207.468 126.714,206.845 
			125.97,206.221 125.71,206.845 124.348,207.966 123.97,208.721 123.6,210.085 		"/>
		<polygon fill="#A6A6A6" points="130.583,206.35 132.564,207.468 132.82,208.34 134.322,208.592 136.445,208.961 137.684,207.844 
			138.062,206.716 138.683,204.852 138.062,202.98 136.071,202.98 135.194,203.605 134.444,203.228 132.953,203.976 131.208,205.1 
					"/>
		<polygon fill="#A6A6A6" points="154.638,214.454 156.392,217.319 156.886,218.94 158.758,219.313 159.379,217.816 
			160.127,218.437 160.877,219.062 163.607,219.062 163.607,218.059 162.749,216.318 162.128,216.195 161.378,216.694 
			161.621,215.826 161.122,214.697 160.004,212.957 159.128,212.208 157.757,212.208 157.512,213.451 155.515,214.328 		"/>
		<polygon fill="#A6A6A6" points="169.352,222.553 170.476,220.187 172.221,221.182 173.837,220.556 175.339,220.309 
			176.087,220.808 178.823,221.182 177.703,222.675 176.712,223.178 175.339,223.049 174.337,222.428 172.717,222.553 
			169.973,223.049 		"/>
		<polygon fill="#A6A6A6" points="192.672,236.768 195.165,237.636 196.285,238.764 197.65,238.388 201.02,240.255 204.389,241.882 
			205.253,243.004 205.135,244.996 206.253,244.996 206.889,246.737 207.875,247.737 209.13,248.362 209.874,248.609 
			208.505,250.982 207.134,251.732 206.003,253.097 204.389,253.722 202.268,253.226 201.148,253.851 199.897,254.591 
			198.275,255.467 196.783,257.586 195.786,258.833 194.291,257.838 191.799,256.215 192.046,251.975 191.17,248.987 
			190.175,247.737 189.545,246.361 189.427,244.996 191.17,243.868 192.167,242.755 193.048,241.749 192.549,240.503 
			192.046,237.887 192.046,237.015 		"/>
		<polygon fill="#A6A6A6" points="177.836,226.793 176.712,228.042 175.59,228.164 174.713,228.287 174.337,226.419 173.59,225.794 
			174.593,225.42 175.968,225.542 176.712,226.041 		"/>
		<polygon fill="#A6A6A6" points="181.453,230.406 179.205,232.151 180.325,232.529 181.7,232.028 		"/>
		<polygon fill="#A6A6A6" points="179.326,226.041 180.325,227.416 182.319,227.543 183.188,229.535 183.443,231.16 
			186.439,230.909 188.06,230.786 188.559,229.662 189.796,229.411 190.422,228.287 188.677,226.793 186.682,226.296 
			185.432,225.297 183.817,225.297 183.321,225.794 181.453,224.296 180.452,223.799 179.577,225.046 		"/>
	</g>
</g>
</svg>
